<?xml version="1.0" encoding="UTF-8" standalone="no"?>
<!-- Created with Inkscape (http://www.inkscape.org/) -->

<svg
   width="850"
   height="225"
   viewBox="0 0 212.5 56.250004"
   version="1.1"
   id="svg5"
   inkscape:version="1.2.2 (b0a8486541, 2022-12-01)"
   sodipodi:docname="header_logo.svg"
   inkscape:export-filename="header_logo.png"
   inkscape:export-xdpi="500"
   inkscape:export-ydpi="500"
   xmlns:inkscape="http://www.inkscape.org/namespaces/inkscape"
   xmlns:sodipodi="http://sodipodi.sourceforge.net/DTD/sodipodi-0.dtd"
   xmlns="http://www.w3.org/2000/svg"
   xmlns:svg="http://www.w3.org/2000/svg">
  <sodipodi:namedview
     id="namedview7"
     pagecolor="#ffffff"
     bordercolor="#000000"
     borderopacity="0.25"
     inkscape:showpageshadow="true"
     inkscape:pageopacity="0.0"
     inkscape:pagecheckerboard="0"
     inkscape:deskcolor="#d1d1d1"
     inkscape:document-units="mm"
     showgrid="false"
     inkscape:zoom="1.7834877"
     inkscape:cx="244.46483"
     inkscape:cy="8.9711863"
     inkscape:window-width="3440"
     inkscape:window-height="1384"
     inkscape:window-x="1920"
     inkscape:window-y="56"
     inkscape:window-maximized="1"
     inkscape:current-layer="layer1" />
  <defs
     id="defs2" />
  <g
     inkscape:label="Layer 1"
     inkscape:groupmode="layer"
     id="layer1">
    <path
       style="fill:#999999;stroke:#000000;stroke-width:0.132184"
       id="path375"
       d="m 67.921045,13.604131 c -1.05292,-0.322295 -2.138633,-0.506989 -3.268651,-0.484451 -0.354268,0.0071 -0.712325,0.01238 -1.059695,0.0691 -0.382793,0.0625 -0.744533,0.190883 -1.116801,0.286326 -0.351038,0.158286 -0.729907,0.281646 -1.053118,0.474862 -1.273661,0.761391 -2.345967,2.09911 -2.522222,3.384137 -0.04081,0.297398 0.01014,0.59839 0.01519,0.897586 0.103362,0.289892 0.149963,0.597181 0.31007,0.869676 0.520229,0.885398 1.747071,1.810091 2.764823,2.318293 2.764844,1.380585 2.159471,1.145848 4.242256,1.717795 0.389493,0.03427 0.776725,0.107166 1.168476,0.102807 1.059519,-0.01179 2.062398,-0.343679 2.84507,-0.912835 0.649483,-0.472303 0.755323,-0.709623 1.201573,-1.302326 0.114482,-0.23903 0.257166,-0.470433 0.343453,-0.717087 0.281005,-0.803219 0.240887,-1.712405 -0.1894,-2.476955 -0.08765,-0.15576 -0.210974,-0.296705 -0.316462,-0.445056 -0.428493,-0.533175 -1.044475,-0.910816 -1.720466,-1.219782 -0.777642,-0.355429 -1.560894,-0.702774 -2.341342,-1.054162 0,0 1.709793,1.104495 1.709793,1.104495 v 0 c -0.469289,-0.228055 -0.94346,-0.449664 -1.407866,-0.684164 -0.161095,-0.08134 0.335978,0.143758 0.497535,0.224499 0.162557,0.08124 0.322404,0.166702 0.473836,0.260962 0.44547,0.277285 0.437571,0.308392 0.793398,0.654748 0.111872,0.138318 0.241711,0.268153 0.335612,0.414957 0.459166,0.717854 0.532842,1.594845 0.276667,2.37046 -0.0785,0.237655 -0.214089,0.460493 -0.321133,0.69074 -0.422985,0.561988 -0.530718,0.801632 -1.154874,1.242681 -0.758143,0.535732 -1.735591,0.826635 -2.746197,0.810978 -0.381697,-0.006 -0.756144,-0.08572 -1.134215,-0.128582 -0.39895,-0.117976 -0.772353,-0.341413 -1.196844,-0.35393 -0.249911,-0.0073 0.818017,0.464573 0.6239,0.337038 -0.350694,-0.230407 -0.747561,-0.412551 -1.094757,-0.646392 -0.61901,-0.416908 -1.326268,-0.975716 -1.7084,-1.56603 -0.166371,-0.257007 -0.22344,-0.551353 -0.335158,-0.827029 -0.01449,-0.287055 -0.07496,-0.575006 -0.04343,-0.861169 0.137157,-1.245646 1.181812,-2.539917 2.427012,-3.257922 0.31684,-0.182695 0.686776,-0.296032 1.030165,-0.444049 0.364929,-0.08393 0.721082,-0.19884 1.094785,-0.251775 0.344238,-0.04877 0.697018,-0.05131 1.046494,-0.05155 1.129278,-7.13e-4 2.215079,0.214594 3.257597,0.553695 0,0 -1.72667,-1.100602 -1.72667,-1.100602 z" />
    <path
       style="fill:#999999;stroke:#000000;stroke-width:0.150673"
       id="path377"
       d="m 64.923112,25.798514 c 0.407814,1.607346 0.543807,3.237277 0.655107,4.862591 0.108755,1.45667 -0.193157,2.902784 -0.449104,4.345727 -0.142188,0.890231 -0.260434,1.782272 -0.310256,2.676802 -0.0041,0.48775 -0.05127,0.977259 -0.0043,1.46452 0.0561,0.389821 0.177446,0.774224 0.30185,1.156887 0.150354,0.390686 0.231434,0.789847 0.329795,1.186822 0.102381,0.418435 0.133616,0.841449 0.224596,1.260757 0.09521,0.407231 0.132828,0.818371 0.155729,1.229537 -0.04221,0.148339 0.08462,0.541952 0.0037,0.670075 -0.0614,0.09735 -0.304016,0.07671 -0.463372,0.09631 -1.581625,0.180266 -3.256056,0.228156 -4.778231,0.585449 -0.323945,0.07604 -0.627427,0.184675 -0.941142,0.277008 -1.128697,0.447029 -2.101184,1.051384 -2.790016,1.787338 -0.407104,0.434947 -0.611758,0.776995 -0.928504,1.242002 -0.12773,0.205453 -0.259686,0.409818 -0.38319,0.616364 -0.191018,0.319435 -0.363768,0.64338 -0.553361,0.963172 -0.05659,0.09547 -0.109538,0.191997 -0.174857,0.285086 -0.113452,0.16166 -0.09778,0.170015 -0.127669,0.09606 0,0 2.361289,1.005516 2.361289,1.005516 v 0 c 0.201497,-0.146176 0.275052,-0.32823 0.376326,-0.511384 0.291975,-0.528003 0.561231,-1.06171 0.905614,-1.576942 0.325827,-0.477805 0.491102,-0.76403 0.910215,-1.208759 0.667765,-0.708573 1.598125,-1.291381 2.704745,-1.706558 0.305827,-0.08491 0.602961,-0.184401 0.917477,-0.254691 1.552193,-0.34688 3.217344,-0.378159 4.816626,-0.576764 0.303747,-0.08079 0.505701,-0.08126 0.649461,-0.282225 0.08503,-0.11888 -0.0382,-0.542097 0.0014,-0.68537 -0.01818,-0.417038 -0.05373,-0.834088 -0.142629,-1.247627 -0.09387,-0.420367 -0.137671,-0.842738 -0.223888,-1.263926 -0.09809,-0.399849 -0.170373,-0.802703 -0.321809,-1.196193 -0.133402,-0.374369 -0.24174,-0.753642 -0.315352,-1.13484 -0.08475,-0.479822 -0.0097,-0.967056 -0.02211,-1.44888 0.0382,-0.893189 0.127056,-1.785171 0.270311,-2.673992 0.24565,-1.453315 0.557335,-2.908755 0.456553,-4.375051 -0.121673,-1.627433 -0.272899,-3.255726 -0.598525,-4.872247 0,0 -2.51273,-0.792566 -2.51273,-0.792566 z" />
    <path
       style="fill:#999999;stroke:#000000;stroke-width:0.16038"
       id="path379"
       d="m 69.169076,45.298395 c 0.295638,0.10576 1.18786,0.417043 0.886917,0.317281 -0.502045,-0.16641 -0.934065,-0.444806 -1.490413,-0.517326 -0.437213,-0.057 0.750587,0.303131 1.111063,0.467881 1.087527,0.497034 1.828611,0.967067 2.710071,1.593388 1.117372,0.884488 1.8103,1.932031 2.404055,2.986156 0.122123,0.231231 0.219152,0.467022 0.316774,0.702582 0,0 2.753993,0.819701 2.753993,0.819701 v 0 c -0.110287,-0.240178 -0.211421,-0.481938 -0.329437,-0.720736 -0.593017,-1.074349 -1.303508,-2.14115 -2.39099,-3.059884 -0.734237,-0.543283 -0.808397,-0.635838 -1.674264,-1.118952 -1.976383,-1.102728 -4.385369,-1.828193 -6.658933,-2.65608 0,0 2.361164,1.185989 2.361164,1.185989 z" />
    <ellipse
       id="path420"
       style="fill:#000000;stroke:#000000;stroke-width:0.248467"
       cx="-181.1312"
       cy="-2.3986423"
       rx="0.037479244"
       ry="0.036750928" />
    <path
       style="fill:#b3b3b3;stroke:#000000;stroke-width:0.199095"
       id="path450"
       d="m 101.60137,51.616545 c 1.08245,-0.257486 2.15479,-0.54611 3.22606,-0.83851 1.08822,-0.300248 2.16233,-0.632871 3.22375,-1.000065 1.14754,-0.432605 2.30063,-0.853762 3.42944,-1.322533 1.33251,-0.547131 2.63335,-1.147957 3.93869,-1.740938 1.49662,-0.722588 3.05105,-1.345742 4.62972,-1.92017 1.91309,-0.683886 3.86474,-1.275897 5.84586,-1.783084 1.83521,-0.440756 3.68504,-0.826973 5.54737,-1.155593 1.39695,-0.223165 2.80516,-0.478256 4.21967,-0.476805 0.38594,0.03752 0.58754,0.04358 0.95453,0.130058 0.13406,0.03163 0.51365,0.172395 0.39218,0.117513 -3.20297,-1.447376 -1.86518,-1.004463 -1.43636,-0.392503 0.18731,0.620453 -0.29335,1.156793 -0.76964,1.618749 -0.76123,0.632397 -1.62806,1.166519 -2.47446,1.714632 -0.92326,0.608115 -1.90134,1.151696 -2.88389,1.687603 -1.05448,0.554892 -2.12609,1.08622 -3.21004,1.597848 -0.91936,0.458675 -1.86859,0.87132 -2.81796,1.281652 -0.73472,0.334975 -1.99983,0.968987 -2.74142,1.292161 -0.59506,0.25751 -1.1557,0.55342 -1.59731,0.980032 -0.33281,0.399729 -0.30239,0.774755 0.0858,1.094435 1.88697,0.923815 2.30893,1.269756 4.18806,0.997758 0.90348,-0.146276 2.27927,-0.755029 3.13702,-1.041009 1.0051,-0.34533 1.97445,-0.761686 2.95361,-1.157919 1.04509,-0.429644 2.05232,-0.924186 3.06606,-1.405383 0.98042,-0.466736 1.91214,-1.001925 2.8701,-1.500531 1.01315,-0.544783 2.0276,-1.087739 3.05527,-1.612439 1.11405,-0.57482 2.26113,-1.100633 3.43447,-1.579929 1.08418,-0.462165 2.19484,-0.865751 3.32238,-1.238998 0.97642,-0.316991 1.97396,-0.581003 2.99093,-0.766927 0.38413,-0.05627 0.76109,-0.118961 1.13907,-0.04031 0.0944,0.01967 0.35894,0.120054 0.27361,0.0825 -2.14503,-0.944459 -2.44451,-1.158669 -1.74416,-0.693373 0.0706,0.09122 0.15086,0.154602 0.12778,0.277736 -0.0624,0.332594 -0.59801,0.785209 -0.84617,1.042714 -0.54998,0.558289 -1.16038,1.071132 -1.77316,1.581455 -0.62862,0.532293 -1.24118,1.077037 -1.85127,1.623866 -0.47333,0.450426 -0.93425,0.910149 -1.38225,1.377845 -0.36767,0.388427 -0.4905,0.633169 -0.79044,1.057707 -0.24681,0.372171 -0.46494,0.756148 -0.65406,1.148958 -0.16522,0.335751 -0.22004,0.631996 0.0773,0.897851 1.3622,0.736548 2.22853,1.126634 3.71034,1.159089 0.66951,-5.4e-5 1.32509,-0.139061 1.96609,-0.31514 0.64569,-0.20069 1.07242,-0.275303 1.70958,-0.49518 0.61119,-0.225547 1.21536,-0.46445 1.81106,-0.719279 0.60676,-0.274569 1.18055,-0.599582 1.75545,-0.919404 0.66771,-0.38045 1.33173,-0.763616 2.02852,-1.104947 0.67894,-0.372662 1.42811,-0.574793 2.1992,-0.737661 0.70406,-0.133907 1.419,-0.143905 2.13022,-0.160803 0.54519,0.0078 1.08041,0.08658 1.60988,0.171671 0.44361,0.08327 0.85617,0.23641 1.25322,0.40971 -3.61559,-1.630698 -1.85535,-0.841007 -1.08649,-0.383844 0.93781,0.628149 1.9885,0.967189 3.10356,1.441643 0.46114,0.14 0.95288,0.209722 1.45051,0.214973 0.53816,0.0075 1.06361,-0.09833 1.57662,-0.246021 0.72591,-0.274609 1.47735,-0.472507 2.24344,-0.633233 1.08207,0.791031 2.94788,1.296131 3.80581,1.295765 0.59934,0.0075 1.19758,0.02708 1.79625,0.04149 l -1.33139,-0.310527 -0.82068,-0.299022 c 0,0 -1.87345,-0.911047 -3.39441,-2.027431 -0.8706,0.01888 -1.22043,0.02488 -2.07216,0.221128 -0.76988,0.169218 -1.51931,0.385634 -2.25893,0.641027 -0.49919,0.127257 -1.00957,0.208675 -1.52559,0.18127 -0.48241,-0.03498 -0.95643,-0.110904 -1.39592,-0.271379 3.48764,1.561709 1.79542,0.892192 1.11685,0.411411 -0.99062,-0.574785 -1.95722,-1.099244 -3.12776,-1.480751 -0.41129,-0.16157 -0.83887,-0.29863 -1.29397,-0.364292 -0.53816,-0.08005 -1.08437,-0.145745 -1.63815,-0.133224 -0.72255,0.02168 -1.44853,0.0478 -2.15989,0.201693 -0.78675,0.177666 -1.54543,0.409361 -2.23965,0.788244 -0.69603,0.348849 -1.36284,0.735016 -2.03665,1.113668 -0.56923,0.313709 -1.13642,0.634157 -1.7407,0.897207 -0.59271,0.249008 -1.19148,0.486713 -1.79961,0.706072 -0.62954,0.221522 -1.05241,0.291578 -1.69666,0.478859 -0.62744,0.157742 -1.26698,0.278659 -1.91666,0.253173 -1.30566,-0.06773 -2.75105,-0.757816 0.56238,0.635797 -0.4228,-0.145136 -0.36251,-0.311082 -0.21756,-0.652048 0.18159,-0.383455 0.3943,-0.757359 0.63324,-1.120505 0.29328,-0.415739 0.40918,-0.651844 0.76977,-1.031681 0.44375,-0.463273 0.89853,-0.919941 1.3682,-1.365526 0.60727,-0.545245 1.21673,-1.088672 1.84544,-1.617071 0.62021,-0.515237 1.2331,-1.03696 1.7869,-1.602662 0.43067,-0.44711 1.13062,-0.986005 0.88719,-1.583392 -0.56946,-0.641163 -2.01384,-1.28212 -3.13193,-1.234973 -0.25219,0.01062 -0.57624,0.06808 -0.82305,0.106265 -1.02184,0.203351 -2.02666,0.470546 -3.00868,0.796853 -1.13106,0.377571 -2.24203,0.792844 -3.33177,1.254435 -1.17578,0.488732 -2.32791,1.018796 -3.44823,1.596211 -1.02753,0.526602 -2.0421,1.071083 -3.05854,1.613084 -0.95366,0.498994 -1.88422,1.030696 -2.86363,1.493158 -1.00931,0.479119 -2.01308,0.970015 -3.056,1.393693 -0.97523,0.394219 -1.94322,0.80466 -2.94694,1.142365 -0.84689,0.277002 -2.21482,0.873211 -3.10786,1.000072 -0.38711,0.04521 -0.76508,0.0887 -1.15181,0.05174 -0.88314,-0.08338 -2.19945,-0.83195 1.2554,0.713478 -0.42945,-0.20145 -0.5718,-0.398861 -0.26637,-0.790103 0.42824,-0.399575 0.979,-0.666797 1.54239,-0.912414 0.74186,-0.32079 2.00212,-0.961332 2.73686,-1.294312 0.95011,-0.412922 1.89689,-0.832806 2.81883,-1.290883 1.08536,-0.517589 2.16159,-1.049966 3.21819,-1.60952 0.98827,-0.538905 1.96815,-1.090209 2.89653,-1.701831 0.86106,-0.556162 1.74141,-1.100882 2.50636,-1.751223 0.53903,-0.531058 1.01539,-1.118764 0.9072,-1.826325 -0.0353,-0.08577 -0.0538,-0.178294 -0.10591,-0.257295 -0.62332,-0.94303 -2.65425,-1.404247 -4.02098,-1.472459 -1.42205,0.04001 -2.83357,0.280902 -4.23641,0.516708 -1.86416,0.336041 -3.71616,0.728201 -5.55298,1.175133 -1.98649,0.516363 -3.94526,1.113298 -5.86493,1.80151 -1.58504,0.579632 -3.1457,1.207717 -4.65091,1.931358 -1.30295,0.592958 -2.60371,1.19017 -3.93698,1.731668 -1.12759,0.461681 -2.27519,0.88508 -3.42205,1.308972 -1.05802,0.361478 -2.12987,0.686601 -3.212,0.987223 -1.0738,0.293516 -2.15089,0.576121 -3.237671,0.828389 l 2.030871,1.073761 z"
       sodipodi:nodetypes="cccccccccccccccccccccccccccccsccccccccccccccccccccccccccccsccccccccccccccccccccccccsccccccccccccccccccccccccccccccc" />
    <ellipse
       id="path572"
       style="fill:#000000;stroke:#000000;stroke-width:0.248467"
       cx="-122.7319"
       cy="20.631849"
       rx="0.056219276"
       ry="0.05512679" />
    <ellipse
       id="path580"
       style="fill:#000000;stroke:#000000;stroke-width:0.248467"
       cx="-94.409973"
       cy="32.829807"
       rx="0.056219276"
       ry="0.05512679" />
    <path
       style="fill:#ff8080;stroke:#000000;stroke-width:0.174456"
       id="path704"
       d="m 85.152117,4.9039021 c 0.368282,-0.027084 0.734132,-0.064862 1.100053,-0.101395 0.370204,-0.039472 0.740858,-0.076311 1.114364,-0.1030415 0.337051,-0.023879 0.67682,-0.032138 1.016707,-0.037834 0.594623,-0.00647 0.389057,-0.00212 -1.181423,-0.038296 -0.05949,-0.00131 0.119191,0.005 0.178668,0.00948 0.183255,0.014163 0.354947,0.045555 0.532387,0.084462 0.384483,0.092852 0.67828,0.2877703 0.949566,0.4993412 0.338273,0.2753003 0.578241,0.5972873 0.809021,0.9193463 0.283399,0.3951571 0.527355,0.8021452 0.770789,1.2090705 0.263473,0.4361992 0.490044,0.8815867 0.709469,1.3282879 0.193313,0.3957847 0.38743,0.7914172 0.596114,1.1837822 0.168609,0.3133593 0.357031,0.6215723 0.551063,0.9281073 0.190509,0.292023 0.378802,0.584511 0.551546,0.881559 0.166077,0.288876 0.331778,0.577832 0.496531,0.867049 0.142667,0.25556 0.305089,0.505774 0.452168,0.760146 0.119651,0.208579 0.2292,0.419591 0.349005,0.628135 0.06516,0.119346 0.148642,0.239544 0.149011,0.36761 -0.01049,0.06653 -0.04946,0.11467 -0.123602,0.151893 -0.08574,0.0369 -0.176113,0.06807 -0.268772,0.09594 -0.123958,0.0343 -0.258455,0.04535 -0.391062,0.05725 -0.0968,0.0086 -0.191862,0.02207 -0.288674,0.03116 0,0 1.540624,0.198847 1.540624,0.198847 v 0 c 0.09634,-0.01102 0.192531,-0.02229 0.289264,-0.03195 0.137765,-0.0179 0.274147,-0.04062 0.397012,-0.08749 0.09833,-0.03648 0.199108,-0.0725 0.273911,-0.132057 0.0745,-0.06886 0.118448,-0.147137 0.12453,-0.237197 -0.0042,-0.143422 -0.07731,-0.277774 -0.158324,-0.410846 -0.122219,-0.208246 -0.235112,-0.418676 -0.353232,-0.627959 -0.147072,-0.254527 -0.310479,-0.504542 -0.455244,-0.759698 -0.165873,-0.28928 -0.331804,-0.57851 -0.498576,-0.867551 C 94.213188,11.371549 94.026283,11.077369 93.834395,10.784501 93.639657,10.48011 93.449574,10.174331 93.27882,9.8633857 93.067593,9.4722126 92.870664,9.077748 92.676287,8.6827649 92.455742,8.2339096 92.230322,7.7858565 91.967252,7.3470702 91.72398,6.9377198 91.481758,6.5279449 91.197957,6.1304155 90.966036,5.7999542 90.731376,5.4674714 90.394003,5.1809528 90.120441,4.9556503 89.826885,4.7400042 89.438099,4.6220434 88.606964,4.3986406 87.711269,4.4479559 86.854167,4.4514319 c -0.340321,0.00782 -0.680295,0.019264 -1.017297,0.04634 -0.372162,0.029957 -0.741783,0.068968 -1.111845,0.1069014 -0.370527,0.036756 -0.741912,0.070061 -1.114025,0.1005899 0,0 1.541115,0.1985991 1.541115,0.1985991 z" />
    <path
       style="fill:#ff8080;stroke:#000000;stroke-width:0.173437"
       d="m 92.510781,48.738402 2.880068,3.387814 0.588534,-3.785999 z"
       id="path824" />
    <path
       style="fill:#ff8080;stroke:#000000;stroke-width:0.155442"
       id="path574"
       d="m 84.055731,3.3964668 c 0.184764,1.0023528 0.35527,2.0062799 0.533744,3.0093357 0.214728,1.2923028 0.417311,2.5856128 0.634872,3.8776765 0.231435,1.346615 0.47602,2.691901 0.725499,4.036652 0.264606,1.422855 0.579327,2.839711 0.880574,4.257934 0.295163,1.394401 0.587333,2.78921 0.874798,4.184646 0.310429,1.517471 0.620246,3.035035 0.925378,4.553184 0.283494,1.419803 0.562826,2.840121 0.846422,4.259896 0.231656,1.17298 0.461014,2.346209 0.695543,3.518825 0.217135,1.07573 0.395473,2.15624 0.561498,3.237035 0.151451,1.021144 0.297216,2.042646 0.461981,3.06274 0.134596,0.832746 0.272849,1.66515 0.415174,2.497205 0.104285,0.6023 0.21212,1.204244 0.322281,1.805942 0.08511,0.466222 0.172411,0.932207 0.260408,1.398097 0.07762,0.407106 0.155889,0.814168 0.235687,1.221034 0.05336,0.272555 0.02672,0.136651 0.07952,0.407781 0,0 3.439591,-0.42012 3.439591,-0.42012 v 0 c -0.05317,-0.270921 -0.0266,-0.135084 -0.07952,-0.407531 -0.07876,-0.406511 -0.15802,-0.812951 -0.236152,-1.219518 -0.08971,-0.464998 -0.178257,-0.930121 -0.265768,-1.395361 -0.111935,-0.600223 -0.222666,-1.200597 -0.329233,-1.801411 -0.147348,-0.829753 -0.29255,-1.659763 -0.427886,-2.490669 -0.161917,-1.019325 -0.317753,-2.039132 -0.464205,-3.059622 -0.163625,-1.086376 -0.355445,-2.1711 -0.568768,-3.252586 -0.231972,-1.17302 -0.469113,-2.345388 -0.705571,-3.517838 C 92.58865,29.739743 92.299952,28.320413 92.013488,26.900809 91.708648,25.382112 91.406692,23.863041 91.09436,22.34529 90.808237,20.9488 90.521985,19.552308 90.22089,18.15781 89.918407,16.743032 89.604525,15.329307 89.344817,13.909083 89.096691,12.566159 88.85068,11.222931 88.623925,9.8778287 88.40675,8.5847488 88.199575,7.2908293 87.992049,5.9969123 87.816133,4.9907091 87.644847,3.9839215 87.496264,2.9753547 c 0,0 -3.440138,0.4207933 -3.440138,0.4207933 z" />
    <path
       style="fill:#999999;stroke:#000000;stroke-width:0.16248"
       id="path724"
       d="m 74.406003,28.03409 c 0.953495,-0.450599 1.932211,-0.848608 2.911067,-1.242839 1.642969,-0.650664 3.299143,-1.26484 4.96047,-1.85666 1.705546,-0.59606 3.420152,-1.153085 5.139986,-1.675984 0.861949,-0.255302 1.725719,-0.493329 2.590761,-0.707261 0.180778,-0.04469 0.723187,-0.174828 0.542381,-0.131743 -0.309804,0.07372 -0.6196,0.149244 -0.929398,0.223791 0.686496,-0.145156 1.384522,-0.329784 2.05599,-0.376336 0.415885,-0.01211 0.564195,0.178864 0.574321,0.456234 -0.101491,0.363789 -0.519899,0.695098 -0.891349,0.992314 -0.299071,0.224438 -0.628662,0.423087 -0.955254,0.622996 0,0 1.444516,-0.236125 1.444516,-0.236125 v 0 c 0.330405,-0.205999 0.663666,-0.411022 0.96284,-0.643538 0.400061,-0.330129 0.823421,-0.689487 0.906177,-1.085927 -0.0083,-0.232209 -0.08267,-0.477979 -0.379378,-0.556737 -0.0641,-0.01701 -0.141684,-0.0156 -0.212531,-0.02339 -0.671735,0.017 -1.383055,0.213191 -2.078603,0.357706 -1.681949,0.396116 -3.366133,0.780454 -5.041842,1.29849 -1.715154,0.525644 -3.424972,1.085195 -5.126055,1.681305 -1.6676,0.595627 -3.330754,1.210898 -4.979802,1.86573 -0.993575,0.399957 -1.986607,0.80541 -2.954779,1.26181 0,0 1.460482,-0.223933 1.460482,-0.223933 z" />
  </g>
</svg>
